<?xml version="1.0" standalone="no"?>
<!DOCTYPE svg PUBLIC "-//W3C//DTD SVG 20010904//EN"
 "http://www.w3.org/TR/2001/REC-SVG-20010904/DTD/svg10.dtd">
<svg version="1.0" xmlns="http://www.w3.org/2000/svg"
 width="568.000000pt" height="568.000000pt" viewBox="0 0 568.000000 568.000000"
 preserveAspectRatio="xMidYMid meet">
<metadata>
Created by potrace 1.14, written by Peter Selinger 2001-2017
</metadata>
<g transform="translate(0.000000,568.000000) scale(0.100000,-0.100000)"
fill="#000000" stroke="none">
<path d="M447 4125 c-30 -16 -28 -15 -58 -15 -15 0 -19 -4 -15 -16 5 -14 4
-15 -9 -4 -11 9 -15 9 -15 1 0 -7 -5 -9 -10 -6 -6 3 -13 -1 -16 -9 -3 -9 -10
-14 -14 -11 -5 3 -14 -1 -22 -8 -7 -8 -19 -12 -27 -9 -8 3 -11 0 -7 -7 4 -6 0
-11 -11 -11 -15 0 -16 -2 -3 -10 13 -8 12 -10 -2 -10 -10 0 -18 -5 -18 -11 0
-6 -7 -9 -15 -5 -8 3 -14 0 -12 -6 1 -7 -4 -12 -12 -13 -14 0 -32 -34 -25 -46
2 -4 -4 -6 -14 -5 -11 1 -16 -5 -14 -16 2 -11 -3 -18 -14 -18 -13 0 -14 -3 -4
-15 10 -12 8 -14 -9 -10 -14 2 -18 -1 -14 -11 3 -8 0 -14 -6 -14 -6 0 -10 -3
-10 -7 4 -23 -2 -43 -11 -38 -6 3 -10 -3 -10 -15 0 -12 -4 -19 -8 -16 -5 3 -9
-1 -9 -9 0 -8 4 -12 9 -9 4 3 8 0 8 -5 0 -6 -5 -11 -11 -11 -5 0 -7 -4 -4 -10
3 -5 1 -10 -5 -10 -7 0 -10 -6 -7 -14 3 -7 0 -19 -6 -26 -9 -10 -9 -11 0 -6 7
4 9 -1 6 -14 -3 -11 -10 -17 -17 -13 -6 4 -5 -1 3 -10 7 -9 10 -17 6 -17 -4 0
-2 -7 5 -15 11 -13 10 -14 -1 -10 -11 4 -14 -10 -15 -70 -1 -51 3 -72 10 -68
8 5 8 2 0 -8 -14 -17 -14 -50 -1 -42 6 4 7 1 1 -8 -14 -22 -14 -70 -1 -62 9 5
9 3 1 -8 -14 -17 -14 -50 -1 -42 6 4 7 1 1 -8 -12 -20 -13 -60 -1 -52 6 4 7 1
2 -7 -13 -21 -14 -130 -1 -123 8 5 8 2 0 -8 -14 -17 -14 -50 -1 -42 6 4 7 1 1
-8 -12 -20 -13 -60 -1 -52 6 4 7 1 2 -7 -13 -21 -14 -130 -1 -123 8 5 8 2 0
-8 -14 -17 -14 -50 -1 -42 6 4 7 1 1 -8 -12 -20 -13 -60 -1 -52 6 4 7 1 2 -7
-13 -21 -14 -130 -1 -123 8 5 8 2 0 -8 -14 -17 -14 -50 -1 -42 6 4 7 1 1 -8
-12 -20 -13 -60 -1 -52 6 4 7 1 2 -7 -13 -21 -14 -130 -1 -123 8 5 8 2 0 -8
-14 -17 -14 -50 -1 -42 6 4 7 1 1 -8 -13 -21 -13 -59 0 -52 8 5 8 3 1 -8 -6
-8 -10 -45 -8 -84 3 -89 4 -95 16 -95 5 0 4 -7 -3 -15 -7 -8 -8 -15 -3 -15 5
0 9 -10 8 -22 -1 -13 5 -29 14 -36 14 -12 14 -13 -1 -8 -12 3 -15 1 -11 -9 3
-8 9 -13 13 -10 4 3 10 -2 14 -10 3 -8 0 -15 -7 -15 -7 0 -4 -5 5 -11 10 -5
18 -19 18 -29 0 -11 6 -20 13 -20 8 0 7 -4 -3 -10 -12 -8 -10 -10 10 -10 20 0
22 -2 10 -10 -10 -6 -11 -10 -2 -10 6 0 12 -7 12 -16 0 -8 3 -13 8 -11 4 3 13
-1 20 -9 8 -9 9 -14 2 -14 -7 0 -6 -5 2 -14 7 -8 16 -12 21 -9 4 2 7 -2 7 -10
0 -15 44 -57 60 -57 6 0 10 -4 10 -10 0 -5 7 -10 16 -10 8 0 13 -4 10 -9 -7
-11 22 -23 36 -14 7 3 8 1 4 -5 -4 -7 -1 -12 8 -12 9 0 16 -5 16 -11 0 -5 4
-8 9 -4 6 3 14 -3 20 -12 8 -14 11 -15 11 -3 1 12 2 12 10 -2 7 -10 17 -14 32
-10 16 4 19 2 13 -8 -5 -9 -4 -11 3 -6 7 4 22 0 34 -8 16 -11 25 -13 35 -4 9
7 13 7 13 -1 0 -8 6 -9 18 -3 19 9 29 9 55 -2 9 -5 25 -5 35 -1 29 13 42 14
49 3 4 -7 1 -8 -7 -3 -9 6 -11 4 -6 -4 6 -9 12 -8 26 4 14 12 20 13 26 4 5 -8
3 -10 -6 -4 -8 5 -11 4 -6 -3 4 -6 13 -9 21 -6 8 4 12 10 9 15 -8 14 3 10 20
-7 15 -14 16 -14 16 3 1 17 1 17 11 0 10 -17 12 -17 29 -2 14 12 20 13 26 4 5
-8 3 -10 -6 -4 -9 6 -11 4 -6 -4 6 -9 12 -8 26 4 14 12 20 13 26 4 5 -8 3 -10
-6 -4 -8 5 -11 4 -6 -3 4 -6 13 -9 21 -6 8 4 12 10 9 15 -8 14 3 10 20 -7 15
-14 16 -14 16 3 0 15 2 15 9 4 5 -8 19 -15 30 -16 11 -1 18 2 16 6 -3 4 2 10
11 13 23 9 31 7 14 -4 -11 -7 -3 -9 25 -7 22 2 48 -1 59 -6 12 -6 16 -5 12 1
-7 11 19 24 28 14 4 -3 16 -7 27 -9 14 -2 18 1 13 9 -6 10 -4 10 7 2 20 -15
51 -26 44 -15 -3 5 -1 12 5 16 5 3 10 2 10 -4 0 -6 17 -9 38 -8 20 2 45 -1 56
-6 12 -6 16 -5 12 1 -7 11 19 24 28 14 4 -3 16 -7 27 -9 14 -2 18 1 13 9 -6
10 -4 10 7 2 20 -15 51 -26 45 -15 -3 5 1 12 10 15 23 9 31 7 14 -4 -10 -6 -6
-9 18 -8 20 1 29 5 25 12 -5 8 -3 8 8 0 21 -16 51 -26 44 -14 -3 6 -3 10 2 11
4 0 16 2 25 4 10 2 21 -2 25 -7 4 -7 1 -8 -7 -3 -9 6 -11 4 -6 -4 6 -9 12 -8
26 4 14 12 20 13 26 4 5 -8 3 -10 -6 -4 -8 5 -11 4 -6 -3 4 -6 13 -9 21 -6 8
4 12 10 9 15 -8 14 3 10 20 -7 15 -14 16 -14 16 3 1 17 1 17 11 0 10 -17 12
-17 29 -2 14 12 20 13 26 4 5 -8 3 -10 -6 -4 -9 6 -11 4 -6 -4 6 -9 12 -8 26
4 14 12 20 13 26 4 5 -8 3 -10 -6 -4 -8 5 -11 4 -6 -3 4 -6 13 -9 21 -6 8 4
12 10 9 15 -8 14 3 10 20 -7 15 -14 16 -14 16 3 0 15 2 15 9 4 5 -8 19 -15 30
-16 11 -1 18 2 16 6 -3 4 2 10 11 13 23 9 31 7 14 -4 -11 -7 -3 -9 25 -7 22 2
48 -1 59 -6 12 -6 16 -5 12 1 -7 11 19 24 28 14 4 -3 16 -7 27 -9 14 -2 18 1
13 9 -6 10 -4 10 7 2 20 -15 51 -26 44 -15 -3 5 -1 12 5 16 5 3 10 2 10 -4 0
-6 17 -9 38 -8 20 2 45 -1 56 -6 12 -6 16 -5 12 1 -7 11 19 24 28 14 4 -3 16
-7 27 -9 14 -2 18 1 13 9 -6 10 -4 10 7 2 20 -15 51 -26 45 -15 -3 5 1 12 10
15 23 9 31 7 14 -4 -10 -6 -6 -9 18 -8 20 1 29 5 25 12 -5 8 -3 8 8 0 20 -15
51 -26 45 -15 -7 10 19 23 28 13 4 -3 16 -7 27 -9 14 -2 18 1 13 9 -6 10 -4
10 7 2 20 -15 51 -26 44 -15 -3 5 -1 12 5 16 5 3 10 1 10 -6 0 -6 8 -9 20 -6
11 3 22 1 26 -4 3 -5 16 -2 30 7 15 11 24 12 24 5 0 -13 37 -11 59 3 9 6 12 5
8 -1 -4 -7 12 -10 43 -10 31 1 46 5 42 12 -3 6 0 6 9 -1 20 -15 51 -26 44 -15
-3 5 -1 12 5 16 5 3 10 2 10 -4 0 -6 17 -9 38 -8 20 2 45 -1 56 -6 12 -6 16
-5 12 1 -3 5 1 13 10 16 23 9 31 7 14 -4 -10 -6 -6 -9 18 -8 18 1 29 5 25 11
-4 6 -1 7 8 1 21 -13 80 -14 72 0 -5 8 -3 8 8 0 20 -15 51 -26 44 -15 -3 5 -1
12 5 16 5 3 10 1 10 -6 0 -6 8 -9 20 -6 11 3 22 1 26 -4 3 -5 16 -2 30 7 15
11 24 12 24 5 0 -13 37 -11 59 3 9 6 12 5 8 -1 -4 -7 12 -10 43 -10 31 1 46 5
42 12 -3 6 0 6 9 -1 20 -15 51 -26 44 -15 -3 5 -1 12 5 16 5 3 10 2 10 -4 0
-6 17 -9 38 -8 20 2 45 -1 56 -6 12 -6 16 -5 12 1 -3 5 1 13 10 16 23 9 31 7
14 -4 -10 -6 -6 -9 18 -8 20 1 29 5 25 12 -5 8 -3 8 8 0 20 -15 51 -26 45 -15
-3 5 1 12 10 15 23 9 31 7 14 -4 -11 -7 -3 -9 25 -7 22 2 48 -1 59 -6 12 -6
16 -5 12 1 -7 11 19 24 28 14 4 -3 16 -7 27 -9 14 -2 18 1 13 9 -6 10 -4 10 7
2 20 -15 51 -26 44 -15 -3 5 -1 12 5 16 5 3 10 2 10 -4 0 -6 17 -9 38 -8 20 2
45 -1 56 -6 12 -6 16 -5 12 1 -7 11 19 24 28 14 4 -3 16 -7 27 -9 14 -2 18 1
13 9 -6 10 -4 10 7 2 20 -15 51 -26 45 -15 -3 5 1 12 10 15 23 9 31 7 14 -4
-10 -6 -6 -9 18 -8 20 1 29 5 25 12 -5 8 -3 8 8 0 21 -16 51 -26 44 -14 -3 6
-3 10 2 11 4 0 16 2 25 4 10 2 21 -2 25 -7 4 -7 1 -8 -7 -3 -9 6 -11 4 -6 -4
6 -9 12 -8 26 4 14 12 20 13 26 4 5 -8 3 -10 -6 -4 -8 5 -11 4 -6 -3 4 -6 13
-9 21 -6 8 4 12 10 9 15 -8 14 3 10 20 -7 15 -14 16 -14 16 3 1 17 1 17 11 0
10 -17 12 -17 29 -2 14 12 20 13 26 4 5 -8 3 -10 -6 -4 -9 6 -11 4 -6 -4 6 -9
12 -8 26 4 14 12 20 13 26 4 5 -8 3 -10 -6 -4 -8 5 -11 4 -6 -3 4 -6 13 -9 21
-6 8 4 12 10 9 15 -8 14 3 10 20 -7 15 -14 16 -14 16 3 0 15 2 15 9 4 5 -8 19
-15 30 -16 11 -1 18 2 16 6 -3 4 2 10 11 13 23 9 31 7 14 -4 -11 -7 -3 -9 25
-7 22 2 48 -1 59 -6 12 -6 16 -5 12 1 -3 5 1 13 10 16 23 9 31 7 14 -4 -10 -6
-6 -9 18 -8 20 1 29 5 25 12 -5 8 -3 8 8 0 20 -15 51 -26 44 -15 -3 5 -1 12 5
16 5 3 10 2 10 -3 0 -5 9 -12 20 -15 11 -3 18 -2 15 3 -6 10 21 21 29 12 11
-10 46 -9 46 1 0 6 3 7 7 4 3 -4 13 -1 21 5 18 15 42 19 42 7 0 -5 5 -9 11 -9
5 0 7 5 4 10 -3 5 1 11 9 11 30 3 34 4 43 13 5 5 2 6 -6 1 -9 -5 -12 -4 -7 3
3 6 15 9 25 7 11 -2 22 3 25 12 3 8 11 13 18 11 7 -3 23 7 36 21 14 14 21 19
16 11 -5 -9 -2 -8 8 3 10 10 23 15 29 11 7 -4 9 -3 6 3 -8 12 31 59 45 55 5
-1 8 5 6 14 -2 10 5 18 16 20 10 1 24 8 30 15 8 9 8 10 -1 5 -7 -4 -13 -3 -13
3 0 5 5 11 11 13 5 2 11 11 13 20 1 10 6 21 11 25 4 4 5 2 0 -6 -6 -10 -4 -12
4 -7 7 5 10 14 7 22 -3 8 0 13 7 11 7 -1 12 8 11 20 0 12 3 20 8 17 4 -3 8 7
8 21 0 15 4 24 10 20 7 -4 9 5 5 27 -5 29 -5 31 7 15 13 -17 14 -17 14 2 0 12
-4 21 -9 21 -5 0 -5 6 2 13 8 10 7 17 -2 27 -10 10 -9 11 2 5 11 -6 13 -4 8 8
-4 10 -2 17 5 17 7 0 6 5 -2 15 -9 10 -9 15 -1 15 6 0 11 5 11 11 0 5 -4 7
-10 4 -5 -3 -10 -1 -10 4 0 6 5 11 11 11 8 0 8 4 1 13 -7 8 -7 18 -2 27 11 17
3 33 -12 24 -7 -4 -8 -2 -4 5 4 6 11 9 15 7 8 -6 5 79 -4 93 -3 5 -1 12 5 16
7 4 6 13 -1 27 -6 11 -7 18 -2 15 4 -3 9 6 9 19 1 13 -1 22 -5 20 -4 -3 -8 5
-8 17 -2 14 1 17 6 9 5 -8 8 1 8 22 0 19 -4 33 -9 30 -4 -3 -8 0 -8 5 0 6 5
11 10 11 6 0 10 4 10 10 0 5 -8 7 -17 4 -17 -5 -17 -5 0 6 16 10 26 36 9 26
-4 -2 -8 4 -8 15 0 10 3 19 6 19 3 0 5 29 5 64 0 35 -3 62 -7 59 -5 -2 -8 1
-8 6 0 6 5 11 11 11 8 0 7 6 -2 17 -8 9 -9 14 -3 10 7 -4 10 3 7 21 -6 38 -6
45 -2 62 2 8 -2 14 -9 12 -8 -1 -11 2 -7 8 3 6 10 8 14 6 8 -6 5 79 -4 93 -3
5 -1 12 5 16 6 4 4 18 -6 38 -11 24 -12 28 -1 14 14 -16 15 -16 15 8 0 13 -4
23 -7 21 -4 -3 -8 5 -8 17 -2 14 1 17 6 9 5 -8 8 1 8 22 0 19 -4 33 -9 30 -4
-3 -8 0 -8 5 0 6 5 11 10 11 6 0 10 4 10 10 0 5 -8 7 -17 4 -17 -5 -17 -5 0 6
16 10 26 36 9 26 -4 -2 -8 4 -8 15 0 10 3 19 6 19 3 0 5 29 5 64 0 35 -3 62
-7 59 -5 -2 -8 1 -8 6 0 6 5 11 11 11 8 0 7 6 -2 17 -8 9 -9 14 -4 11 6 -4 10
11 10 37 1 24 -3 41 -7 39 -4 -3 -8 0 -8 5 0 6 5 11 12 11 9 0 9 3 1 11 -7 7
-8 20 -4 33 4 11 6 31 5 44 -1 12 -2 31 -3 43 0 12 -5 17 -12 13 -8 -4 -8 0 0
15 9 16 9 21 0 21 -8 0 -9 3 0 13 8 11 6 18 -8 31 -19 18 -37 61 -20 50 13 -8
11 2 -3 18 -20 21 -38 56 -38 73 0 8 -8 15 -17 15 -13 0 -14 3 -5 8 9 6 5 15
-15 32 -16 14 -32 24 -36 22 -5 -1 -6 2 -2 7 3 6 -3 18 -14 28 -11 9 -18 20
-15 25 3 4 -1 5 -9 2 -9 -3 -25 8 -41 29 -15 20 -35 38 -44 41 -10 4 -7 -2 8
-15 17 -14 19 -17 5 -10 -11 6 -31 20 -45 32 -14 11 -19 17 -11 13 9 -4 12 -3
7 4 -4 6 -14 8 -22 5 -9 -3 -19 -1 -23 5 -3 5 -17 12 -31 13 -14 2 -28 9 -32
14 -5 6 -8 5 -8 -3 0 -10 -4 -9 -16 3 -12 11 -20 13 -27 6 -6 -6 -16 -11 -22
-11 -5 0 -3 5 5 10 10 6 -821 10 -2333 10 -1292 0 -2346 -4 -2343 -8 2 -4 -5
-9 -17 -9 -17 -2 -19 0 -7 7 24 15 -2 11 -33 -5z m-422 -604 c3 -5 2 -12 -3
-15 -5 -3 -9 1 -9 9 0 17 3 19 12 6z m-1 -47 c3 -8 2 -12 -4 -9 -6 3 -10 10
-10 16 0 14 7 11 14 -7z m1 -54 c3 -5 1 -10 -4 -10 -6 0 -11 5 -11 10 0 6 2
10 4 10 3 0 8 -4 11 -10z m2 -65 c0 -8 -4 -12 -9 -9 -5 3 -6 10 -3 15 9 13 12
11 12 -6z m-2 -55 c3 -5 1 -10 -4 -10 -6 0 -11 5 -11 10 0 6 2 10 4 10 3 0 8
-4 11 -10z m5 -60 c0 -5 -5 -10 -11 -10 -5 0 -7 5 -4 10 3 6 8 10 11 10 2 0 4
-4 4 -10z m-5 -180 c3 -5 1 -10 -4 -10 -6 0 -11 5 -11 10 0 6 2 10 4 10 3 0 8
-4 11 -10z m5 -60 c0 -5 -5 -10 -11 -10 -5 0 -7 5 -4 10 3 6 8 10 11 10 2 0 4
-4 4 -10z m-5 -180 c3 -5 1 -10 -4 -10 -6 0 -11 5 -11 10 0 6 2 10 4 10 3 0 8
-4 11 -10z m5 -60 c0 -5 -5 -10 -11 -10 -5 0 -7 5 -4 10 3 6 8 10 11 10 2 0 4
-4 4 -10z m-5 -180 c3 -5 1 -10 -4 -10 -6 0 -11 5 -11 10 0 6 2 10 4 10 3 0 8
-4 11 -10z m5 -60 c0 -5 -5 -10 -11 -10 -5 0 -7 5 -4 10 3 6 8 10 11 10 2 0 4
-4 4 -10z m-5 -180 c3 -5 1 -10 -4 -10 -6 0 -11 5 -11 10 0 6 2 10 4 10 3 0 8
-4 11 -10z m5 -60 c0 -5 -5 -10 -11 -10 -5 0 -7 5 -4 10 3 6 8 10 11 10 2 0 4
-4 4 -10z"/>
<path d="M5440 4026 c0 -2 8 -10 18 -17 15 -13 16 -12 3 4 -13 16 -21 21 -21
13z"/>
<path d="M5645 3740 c-3 -5 -1 -10 4 -10 6 0 11 5 11 10 0 6 -2 10 -4 10 -3 0
-8 -4 -11 -10z"/>
<path d="M5215 1571 c-3 -5 -1 -12 5 -16 5 -3 10 1 10 9 0 18 -6 21 -15 7z"/>
</g>
</svg>
