<svg width="81" height="80" viewBox="0 0 81 80" fill="none" xmlns="http://www.w3.org/2000/svg">
<path d="M61.3422 66.2958C61.0389 66.2958 60.7338 66.2642 60.4287 66.1991L13.3478 56.1935C12.7803 56.0725 12.2501 55.8437 11.7683 55.5107C11.4613 55.2986 11.2622 54.9451 11.2622 54.5451C11.2622 53.8977 11.7869 53.373 12.4343 53.373C12.6929 53.373 12.9329 53.4567 13.1264 53.6C13.3441 53.747 13.5822 53.8474 13.8352 53.9014L60.918 63.9088C61.4408 64.0204 61.9766 63.92 62.425 63.6297C62.8734 63.3395 63.1803 62.8911 63.2901 62.3702L68.3059 38.7721L64.1217 37.8828C63.4892 37.7488 63.0836 37.1256 63.2194 36.493C63.3534 35.8604 63.9766 35.4549 64.6092 35.5907L68.7934 36.48L69.5431 32.9525L64.1217 31.8009C63.4892 31.667 63.0836 31.0437 63.2194 30.4111C63.3534 29.7786 63.9748 29.373 64.6092 29.5088L70.0306 30.6604L70.2334 29.7116C70.4622 28.6344 69.7701 27.5702 68.691 27.3395L64.1217 26.3684C63.4892 26.2344 63.0836 25.6111 63.2194 24.9786C63.3534 24.346 63.9766 23.9404 64.6092 24.0763L69.1785 25.0474C71.5208 25.546 73.0222 27.8567 72.5255 30.199L72.0789 32.2921V32.2939C72.0789 32.2958 72.0789 32.2958 72.0789 32.2977L70.8436 38.1116V38.1135V38.1153L65.5841 62.8577C65.3441 63.9907 64.6762 64.9637 63.7031 65.5963C62.9869 66.0577 62.1738 66.2958 61.3422 66.2958ZM59.1469 59.1367C59.065 59.1367 58.9831 59.1274 58.9031 59.1107L51.2008 57.4735C50.5701 57.3395 50.1645 56.72 50.2966 56.0874L50.6557 54.3665C50.7878 53.7321 51.4092 53.3265 52.0417 53.4586C52.6762 53.5907 53.0817 54.2121 52.9496 54.8446L52.8287 55.4232L58.2408 56.573L58.7059 54.3646C58.8399 53.7321 59.4594 53.3265 60.0938 53.4586C60.7264 53.5925 61.132 54.2139 60.9999 54.8465L60.2929 58.2046C60.2296 58.5098 60.0455 58.7758 59.785 58.9451C59.5934 59.0716 59.372 59.1367 59.1469 59.1367ZM36.4213 48.8744H36.4176C35.7701 48.8744 35.2455 48.3497 35.2455 47.7023C35.2455 47.0549 35.7701 46.5302 36.4176 46.5302C37.065 46.5302 37.5915 47.0549 37.5915 47.7023C37.5915 48.3497 37.0687 48.8744 36.4213 48.8744Z" fill="#0468FF"/>
<path d="M61.1934 55.7804H13.0576C10.6613 55.7804 8.71338 53.8325 8.71338 51.4362V18.0483C8.71338 15.652 10.6613 13.7041 13.0576 13.7041H61.1934C63.5897 13.7041 65.5376 15.652 65.5376 18.0483V51.4362C65.5376 53.8306 63.5878 55.7804 61.1934 55.7804ZM13.0576 16.0483C11.9543 16.0483 11.0576 16.945 11.0576 18.0483V51.4362C11.0576 52.5395 11.9543 53.4362 13.0576 53.4362H61.1934C62.2966 53.4362 63.1934 52.5395 63.1934 51.4362V18.0483C63.1934 16.945 62.2966 16.0483 61.1934 16.0483H13.0576ZM15.4706 48.8762C14.825 48.8762 14.3022 48.3553 14.2985 47.7097C14.2966 47.0622 14.8176 46.5357 15.465 46.532L20.5831 46.5097C20.585 46.5097 20.5869 46.5097 20.5887 46.5097C21.2343 46.5097 21.7571 47.0306 21.7608 47.6762C21.7627 48.3236 21.2418 48.8501 20.5943 48.8539L15.4762 48.8762C15.4743 48.8762 15.4724 48.8762 15.4706 48.8762ZM29.8743 48.8632L24.9385 48.8557C24.2911 48.8557 23.7683 48.3292 23.7683 47.6818C23.7683 47.0343 24.2929 46.5115 24.9404 46.5115H24.9422L29.8762 46.519C30.5236 46.519 31.0483 47.0455 31.0464 47.6929C31.0464 48.3385 30.5218 48.8632 29.8743 48.8632ZM35.6566 48.8483C35.0111 48.8483 34.4883 48.3274 34.4845 47.6818C34.4827 47.0343 35.0036 46.5078 35.6511 46.5041L40.7692 46.4818C40.7711 46.4818 40.7729 46.4818 40.7748 46.4818C41.4204 46.4818 41.9431 47.0027 41.9469 47.6483C41.9487 48.2957 41.4278 48.8222 40.7804 48.826L35.6622 48.8483C35.6604 48.8483 35.6585 48.8483 35.6566 48.8483ZM50.0604 48.8334L45.1245 48.826C44.4771 48.826 43.9543 48.2994 43.9543 47.652C43.9543 47.0046 44.479 46.4818 45.1264 46.4818H45.1283L50.0622 46.4892C50.7097 46.4892 51.2343 47.0157 51.2324 47.6632C51.2324 48.3106 50.7078 48.8334 50.0604 48.8334ZM40.572 43.2874L35.6362 43.2799C34.9887 43.2799 34.4659 42.7534 34.4659 42.106C34.4659 41.4585 34.9906 40.9357 35.638 40.9357H35.6399L40.5738 40.9432C41.2213 40.9432 41.7459 41.4697 41.7441 42.1171C41.7441 42.7646 41.2194 43.2874 40.572 43.2874ZM15.4706 43.2669C14.825 43.2669 14.3022 42.746 14.2985 42.1004C14.2966 41.4529 14.8176 40.9264 15.465 40.9227L20.5831 40.9004C20.585 40.9004 20.5869 40.9004 20.5887 40.9004C21.2343 40.9004 21.7571 41.4213 21.7608 42.0669C21.7627 42.7143 21.2418 43.2408 20.5943 43.2446L15.4762 43.2669C15.4743 43.2669 15.4724 43.2669 15.4706 43.2669ZM53.2976 21.0678C53.2027 21.0678 53.1041 21.0567 53.0073 21.0306C52.3804 20.8706 52.0008 20.2362 52.1608 19.6092L52.1627 19.6018C52.3227 18.9748 52.9627 18.5971 53.5897 18.7571C54.2166 18.9171 54.5943 19.5553 54.4343 20.1841C54.3004 20.7125 53.8222 21.0678 53.2976 21.0678ZM57.6697 21.0436C57.5748 21.0436 57.4762 21.0325 57.3794 21.0064C56.7524 20.8464 56.3729 20.212 56.5329 19.585L56.5348 19.5776C56.6948 18.9506 57.3329 18.5729 57.9618 18.7329C58.5887 18.8929 58.9664 19.5311 58.8064 20.1599C58.6724 20.6883 58.1943 21.0436 57.6697 21.0436ZM49.0185 21.0343C48.9236 21.0343 48.825 21.0232 48.7283 20.9971C48.1013 20.8371 47.7218 20.2027 47.8818 19.5757L47.8836 19.5683C48.0436 18.9413 48.6817 18.5636 49.3106 18.7236C49.9376 18.8836 50.3152 19.5218 50.1552 20.1506C50.0213 20.679 49.5431 21.0343 49.0185 21.0343ZM44.8324 21.0213C44.7376 21.0213 44.639 21.0101 44.5422 20.9841C43.9152 20.8241 43.5357 20.1897 43.6957 19.5627L43.6976 19.5553C43.8576 18.9283 44.4976 18.5506 45.1245 18.7106C45.7515 18.8706 46.1292 19.5088 45.9692 20.1376C45.8352 20.666 45.3571 21.0213 44.8324 21.0213Z" fill="#152242"/>
<path d="M24.1793 29.1627H16.3021C15.6565 29.1627 15.1319 28.6399 15.13 27.9943L15.0984 19.9181C15.0965 19.6074 15.2193 19.3078 15.4389 19.0864C15.6584 18.865 15.9561 18.7404 16.2686 18.7404L24.1607 18.7236H24.1626C24.4733 18.7236 24.7691 18.8464 24.9905 19.066C25.21 19.2855 25.3347 19.5832 25.3347 19.8939L25.3496 27.9869C25.3496 28.2976 25.2268 28.5971 25.0072 28.8167C24.7877 29.0399 24.49 29.1627 24.1793 29.1627ZM17.4705 26.8185H23.0035L22.9924 21.0734L17.4482 21.0864L17.4705 26.8185Z" fill="#0468FF"/>
</svg>
