<svg width="80" height="80" viewBox="0 0 80 80" fill="none" xmlns="http://www.w3.org/2000/svg">
<path d="M37.0697 43.3936C37.0678 43.3936 37.0678 43.3936 37.0697 43.3936C34.9097 43.3936 32.8799 42.5508 31.3543 41.0234L7.04362 16.6661C6.57293 16.1954 6.57479 15.4327 7.04548 14.962C7.51618 14.4913 8.27897 14.4931 8.74967 14.9638L33.0585 39.321C34.1283 40.3927 35.5534 40.9843 37.0697 40.9843C38.5859 40.9843 40.0092 40.3945 41.079 39.321L65.3859 14.9731C65.8566 14.5024 66.6194 14.5006 67.0901 14.9713C67.5608 15.442 67.5608 16.2047 67.092 16.6754L42.785 41.0234C41.2594 42.5527 39.2278 43.3936 37.0697 43.3936Z" fill="#152242"/>
<path d="M47.1572 55.7415H7.47902C6.81297 55.7415 6.27344 55.2019 6.27344 54.5377V15.3098C6.27344 14.9898 6.39995 14.6847 6.62693 14.4577C6.85204 14.2326 7.15902 14.1042 7.47902 14.1042L66.7069 14.1098C67.373 14.1098 67.9106 14.6494 67.9106 15.3136V41.1312C67.9106 41.7973 67.3711 42.3349 66.7051 42.3349C66.039 42.3349 65.4995 41.7954 65.4995 41.1312V16.521L8.68088 16.5154V53.3322H47.1534C47.8195 53.3322 48.359 53.8717 48.359 54.5359C48.359 55.2001 47.8232 55.7415 47.1572 55.7415Z" fill="#152242"/>
<path d="M8.6735 50.8093C8.33675 50.8093 8.00187 50.6679 7.76187 50.3944C7.32652 49.8921 7.38047 49.1312 7.8828 48.6958L22.3219 36.1768C23.4642 35.1851 24.7368 34.3089 26.1023 33.5721C26.6884 33.2558 27.4195 33.4754 27.734 34.0614C28.0502 34.6475 27.8307 35.3786 27.2447 35.693C26.0354 36.3442 24.9098 37.12 23.8995 37.9963L9.46047 50.5154C9.23536 50.7126 8.95443 50.8093 8.6735 50.8093ZM54.6065 41.3061C54.3256 41.3061 54.0447 41.2093 53.8158 41.0102L50.3833 38.0223C49.3395 37.1144 48.1786 36.3182 46.9358 35.6558C46.3479 35.3433 46.1265 34.614 46.4372 34.0261C46.7498 33.4382 47.4791 33.2168 48.067 33.5275C49.4716 34.2754 50.7833 35.1758 51.9647 36.2028L55.3972 39.1907C55.8995 39.6279 55.9516 40.3889 55.5144 40.8893C55.2763 41.1647 54.9414 41.3061 54.6065 41.3061Z" fill="#152242"/>
<path d="M59.7004 65.8941C51.9664 65.8941 45.6743 59.602 45.6743 51.8681C45.6743 44.1341 51.9664 37.842 59.7004 37.842C67.4343 37.842 73.7264 44.1341 73.7264 51.8681C73.7264 59.602 67.4343 65.8941 59.7004 65.8941ZM59.7004 40.2532C53.2948 40.2532 48.0836 45.4644 48.0836 51.8699C48.0836 58.2755 53.2948 63.4867 59.7004 63.4867C66.1059 63.4867 71.3171 58.2755 71.3171 51.8699C71.3171 45.4644 66.1059 40.2532 59.7004 40.2532Z" fill="#0468FF"/>
<path d="M57.0325 58.7107C56.7125 58.7107 56.4073 58.5842 56.1804 58.3573L52.2604 54.4373C51.7897 53.9666 51.7897 53.2038 52.2604 52.7331C52.7311 52.2624 53.4939 52.2624 53.9646 52.7331L57.0325 55.801L65.4753 47.3303C65.946 46.8596 66.7069 46.8577 67.1794 47.3284C67.652 47.7991 67.652 48.56 67.1813 49.0326L57.8864 58.3573C57.6594 58.5824 57.3525 58.7089 57.0325 58.7107Z" fill="#0468FF"/>
</svg>
