<svg width="80" height="80" viewBox="0 0 80 80" fill="none" xmlns="http://www.w3.org/2000/svg">
<path d="M39.9534 68.4801C33.2352 68.4801 26.7999 66.1322 21.6129 61.7452C16.5599 57.4736 13.2185 51.7098 12.0166 45.295L9.11803 49.2131C8.73292 49.734 7.99989 49.8438 7.47896 49.4587C6.95803 49.0736 6.84827 48.3405 7.23338 47.8196L11.825 41.6112C12.0166 41.3322 12.3292 41.1387 12.692 41.1089C12.718 41.107 12.7422 41.1052 12.7683 41.1052H12.7701C13.0176 41.1015 13.2725 41.1759 13.4883 41.334L19.7283 45.9498C20.2492 46.3349 20.359 47.068 19.9738 47.5889C19.5887 48.1098 18.8557 48.2196 18.3348 47.8345L14.3236 44.867C15.4269 50.7517 18.4948 56.0373 23.1292 59.9554C28.4594 64.4633 35.2241 66.6252 42.1822 66.0429C54.0725 65.0475 63.7729 56.1489 65.7711 44.4019C65.879 43.7638 66.4855 43.334 67.1236 43.4438C67.7618 43.5517 68.1915 44.1582 68.0818 44.7963C65.905 57.5982 55.3338 67.2968 42.3776 68.3815C41.5645 68.4466 40.7552 68.4801 39.9534 68.4801ZM67.2092 38.8968C66.9673 38.8968 66.7218 38.8224 66.5134 38.6661L60.2734 34.0503C59.7524 33.6652 59.6427 32.9322 60.0278 32.4112C60.4129 31.8903 61.1459 31.7805 61.6669 32.1656L65.6799 35.135C64.5766 29.2484 61.5106 23.9647 56.8743 20.0447C51.5441 15.5368 44.7776 13.375 37.8213 13.9573C25.9311 14.9526 16.2325 23.8512 14.2343 35.5982C14.1264 36.2363 13.5199 36.6643 12.8818 36.5563C12.2436 36.4484 11.8138 35.8419 11.9236 35.2038C14.1004 22.4019 24.6715 12.7052 37.6278 11.6205C45.2092 10.9861 52.5822 13.3415 58.3906 18.2531C63.4436 22.5266 66.785 28.2866 67.9869 34.7033L70.8836 30.787C71.2687 30.2661 72.0018 30.1563 72.5227 30.5415C73.0436 30.9266 73.1534 31.6596 72.7683 32.1805L68.1859 38.3759C67.9999 38.6531 67.6966 38.8484 67.3413 38.8875C67.2966 38.895 67.252 38.8968 67.2092 38.8968Z" fill="#152242"/>
<path d="M37.9591 48.6197H29.0475C28.5935 48.6197 28.1786 48.3574 27.987 47.9462C27.7935 47.535 27.8568 47.0495 28.147 46.6997L35.5237 37.8271C35.8568 37.3843 36.0316 36.8597 36.0316 36.3071C36.0316 34.9136 34.8968 33.7788 33.5033 33.7788C32.1098 33.7788 30.9768 34.9136 30.9768 36.3071C30.9768 36.9546 30.4521 37.4792 29.8047 37.4792C29.1572 37.4792 28.6326 36.9546 28.6326 36.3071C28.6326 33.6206 30.8168 31.4346 33.5033 31.4346C36.1898 31.4346 38.3758 33.6206 38.3758 36.3071C38.3758 37.3862 38.0298 38.4095 37.373 39.269C37.3637 39.282 37.3544 39.2932 37.3433 39.3062L31.5479 46.2774H37.9609C38.6084 46.2774 39.133 46.802 39.133 47.4495C39.133 48.0969 38.6065 48.6197 37.9591 48.6197Z" fill="#0468FF"/>
<path d="M48.8465 48.6195C48.199 48.6195 47.6744 48.0949 47.6744 47.4474V43.4177H41.4716C41.0269 43.4177 40.6195 43.1647 40.4223 42.7665C40.2251 42.3665 40.2697 41.8902 40.5395 41.5367L47.9144 31.8437C48.2195 31.4437 48.7442 31.2819 49.2223 31.4419C49.6986 31.6019 50.0204 32.0502 50.0204 32.5526V41.0735H50.9544C51.6018 41.0735 52.1265 41.5981 52.1265 42.2456C52.1265 42.893 51.6018 43.4177 50.9544 43.4177H50.0204V47.4474C50.0186 48.0949 49.4939 48.6195 48.8465 48.6195ZM43.8363 41.0735H47.6744V36.0279L43.8363 41.0735Z" fill="#0468FF"/>
</svg>
