<svg width="81" height="80" viewBox="0 0 81 80" fill="none" xmlns="http://www.w3.org/2000/svg">
<path d="M40.3333 72.093C32.8542 72.093 25.8216 69.1721 20.5193 63.8884C9.59838 52.9674 9.59838 35.2 20.5193 24.2791C31.4402 13.3581 49.2077 13.3581 60.1286 24.2791C71.0495 35.2 71.0495 52.9674 60.1286 63.8884C54.8449 69.1907 47.8123 72.093 40.3333 72.093ZM40.3333 18.1395C33.6914 18.1395 27.0495 20.6698 21.9891 25.7302C11.8681 35.8512 11.8681 52.3163 21.9891 62.4372C26.9007 67.3488 33.4123 70.0465 40.3333 70.0465C47.2542 70.0465 53.7844 67.3488 58.6775 62.4372C68.7984 52.3163 68.7984 35.8512 58.6775 25.7302C53.617 20.6698 46.9751 18.1395 40.3333 18.1395Z" fill="#152242"/>
<path d="M40.3333 22.028C39.7566 22.028 39.3101 21.5628 39.3101 21.0047V17.0977C39.3101 16.521 39.7752 16.0745 40.3333 16.0745C40.8915 16.0745 41.3566 16.5396 41.3566 17.0977V21.0047C41.3566 21.5814 40.9101 22.028 40.3333 22.028Z" fill="#152242"/>
<path d="M24.017 28.7999C23.7565 28.7999 23.4961 28.7069 23.2914 28.5022L20.5379 25.7488C20.1286 25.3395 20.1286 24.6883 20.5379 24.2976C20.9472 23.9069 21.5984 23.8883 21.9891 24.2976L24.7426 27.0511C25.1519 27.4604 25.1519 28.1116 24.7426 28.5022C24.5379 28.6883 24.2775 28.7999 24.017 28.7999Z" fill="#152242"/>
<path d="M17.2635 45.1163H13.3565C12.7798 45.1163 12.3333 44.6512 12.3333 44.0931C12.3333 43.5349 12.7984 43.0698 13.3565 43.0698H17.2635C17.8402 43.0698 18.2867 43.5349 18.2867 44.0931C18.2867 44.6512 17.8216 45.1163 17.2635 45.1163Z" fill="#152242"/>
<path d="M21.245 64.186C20.9845 64.186 20.724 64.093 20.5194 63.8883C20.1101 63.479 20.1101 62.8279 20.5194 62.4372L23.2729 59.6837C23.6822 59.2744 24.3333 59.2744 24.724 59.6837C25.1147 60.093 25.1333 60.7442 24.724 61.1349L21.9705 63.8883C21.7845 64.093 21.524 64.186 21.245 64.186Z" fill="#152242"/>
<path d="M40.3333 71.0512C39.8124 71.0512 39.4031 70.6233 39.4031 70.121V67.6465C39.4031 67.1256 39.831 66.7163 40.3333 66.7163C40.8356 66.7163 41.2635 67.1442 41.2635 67.6465V70.121C41.2635 70.6233 40.8542 71.0512 40.3333 71.0512Z" fill="#131432"/>
<path d="M59.403 64.186C59.1425 64.186 58.8821 64.093 58.6774 63.8883L55.9239 61.1349C55.5146 60.7255 55.5146 60.0744 55.9239 59.6837C56.3332 59.2744 56.9844 59.2744 57.3751 59.6837L60.1286 62.4372C60.5379 62.8465 60.5379 63.4976 60.1286 63.8883C59.9425 64.093 59.6821 64.186 59.403 64.186Z" fill="#152242"/>
<path d="M67.3101 45.1163H63.4031C62.8264 45.1163 62.3799 44.6512 62.3799 44.0931C62.3799 43.5349 62.845 43.0698 63.4031 43.0698H67.3101C67.8869 43.0698 68.3334 43.5349 68.3334 44.0931C68.3334 44.6512 67.8869 45.1163 67.3101 45.1163Z" fill="#152242"/>
<path d="M56.6495 28.8C56.389 28.8 56.1286 28.707 55.9239 28.5023C55.5146 28.093 55.5146 27.4419 55.9239 27.0512L58.6774 24.2977C59.0867 23.8884 59.7379 23.8884 60.1286 24.2977C60.5379 24.707 60.5379 25.3582 60.1286 25.7489L57.3751 28.5023C57.1704 28.6884 56.91 28.8 56.6495 28.8Z" fill="#152242"/>
<path d="M40.3332 48.2047C39.2355 48.2047 38.175 47.7396 37.4308 46.921C36.6866 46.1024 36.3332 45.0047 36.4448 43.9257C36.4448 43.9071 36.4448 43.8885 36.4448 43.8699L39.3099 25.8419C39.3843 25.3396 39.8122 24.9675 40.3332 24.9675C40.8541 24.9675 41.2634 25.3396 41.3564 25.8419L44.2215 43.8699C44.2215 43.8885 44.2215 43.9071 44.2215 43.9257C44.3332 45.0233 43.9611 46.121 43.2355 46.921C42.4913 47.7396 41.4308 48.2047 40.3332 48.2047ZM38.4913 44.1489C38.4541 44.6699 38.6215 45.1536 38.9564 45.5443C39.3099 45.935 39.7936 46.1582 40.3145 46.1582C40.8355 46.1582 41.3192 45.935 41.6727 45.5443C42.0262 45.1536 42.1936 44.6699 42.1378 44.1489L40.2959 32.5582L38.4913 44.1489Z" fill="#0468FF"/>
<path d="M48.9844 13.9163H31.8123C31.2356 13.9163 30.7891 13.4512 30.7891 12.893V8.93024C30.7891 8.35349 31.2542 7.90698 31.8123 7.90698H48.9844C49.5612 7.90698 50.0077 8.3721 50.0077 8.93024V12.893C50.0263 13.4512 49.5612 13.9163 48.9844 13.9163ZM32.8542 11.8698H47.9612V9.95349H32.8542V11.8698Z" fill="#152242"/>
<path d="M44.6682 18.1396H36.1473C35.5705 18.1396 35.124 17.6745 35.124 17.1164V12.8931C35.124 12.3164 35.5891 11.8699 36.1473 11.8699H44.6682C45.245 11.8699 45.6915 12.335 45.6915 12.8931V17.0978C45.6915 17.6745 45.2264 18.1396 44.6682 18.1396ZM37.1705 16.0745H43.6263V13.9164H37.1705V16.0745Z" fill="#152242"/>
<path d="M59.4403 26.0094C59.1798 26.0094 58.9193 25.9164 58.7147 25.7117C58.3054 25.3024 58.3054 24.6512 58.7147 24.2605L60.3333 22.6419C60.7426 22.2326 61.3938 22.2326 61.7845 22.6419C62.1938 23.0512 62.1938 23.7024 61.7845 24.0931L60.1659 25.7117C59.9612 25.9164 59.7007 26.0094 59.4403 26.0094Z" fill="#152242"/>
<path d="M61.8588 26.9767C61.5983 26.9767 61.3378 26.8837 61.1332 26.679L57.6541 23.1999C57.4681 23.0139 57.3564 22.7534 57.3564 22.4744C57.3564 22.1953 57.4681 21.9348 57.6541 21.7488L59.2541 20.1488C59.6634 19.7395 60.3146 19.7395 60.7053 20.1488L64.1844 23.6278C64.3704 23.8139 64.482 24.093 64.482 24.3534C64.482 24.6325 64.3704 24.893 64.1844 25.079L62.5844 26.679C62.3983 26.8651 62.1192 26.9767 61.8588 26.9767Z" fill="#152242"/>
</svg>
