<svg width="108" height="9" viewBox="0 0 108 9" fill="none" xmlns="http://www.w3.org/2000/svg">
<path d="M107.35 4.85687C107.547 4.66346 107.55 4.34689 107.357 4.1498L104.205 0.937941C104.012 0.740846 103.695 0.737859 103.498 0.931271C103.301 1.12468 103.298 1.44125 103.491 1.63835L106.293 4.49333L103.438 7.29495C103.241 7.48836 103.238 7.80493 103.431 8.00202C103.625 8.19912 103.941 8.20211 104.138 8.00869L107.35 4.85687ZM0.995283 3.99998L3.03374 4.01921L3.04318 3.01925L1.00472 3.00002L0.995283 3.99998ZM7.11067 4.05767L11.1876 4.09613L11.197 3.09618L7.1201 3.05771L7.11067 4.05767ZM15.2645 4.13459L19.3414 4.17305L19.3509 3.1731L15.2739 3.13464L15.2645 4.13459ZM23.4184 4.21152L27.4953 4.24998L27.5047 3.25002L23.4278 3.21156L23.4184 4.21152ZM31.5722 4.28844L35.6491 4.3269L35.6586 3.32695L31.5816 3.28848L31.5722 4.28844ZM39.726 4.36536L43.803 4.40382L43.8124 3.40387L39.7355 3.36541L39.726 4.36536ZM47.8799 4.44229L51.9568 4.48075L51.9662 3.48079L47.8893 3.44233L47.8799 4.44229ZM56.0337 4.51921L60.1107 4.55767L60.1201 3.55771L56.0432 3.51925L56.0337 4.51921ZM64.1876 4.59613L68.2645 4.63459L68.2739 3.63464L64.197 3.59618L64.1876 4.59613ZM72.3414 4.67305L76.4183 4.71152L76.4278 3.71156L72.3508 3.6731L72.3414 4.67305ZM80.4953 4.74998L84.5722 4.78844L84.5816 3.78848L80.5047 3.75002L80.4953 4.74998ZM88.6491 4.8269L92.726 4.86536L92.7355 3.86541L88.6585 3.82695L88.6491 4.8269ZM96.8029 4.90382L100.88 4.94229L100.889 3.94233L96.8124 3.90387L96.8029 4.90382ZM104.957 4.98075L106.995 4.99998L107.005 4.00002L104.966 3.98079L104.957 4.98075Z" fill="#0468FF"/>
</svg>
