<svg width="188" height="86" fill="none" xmlns="http://www.w3.org/2000/svg"><rect x=".5" width="187" height="85.252" rx="20" fill="#fff"/><path d="m26.157 37.913 16.97-10.37 16.969 10.37M56.325 46.387v12.067c0 .625-.507 1.131-1.132 1.131H31.06a1.131 1.131 0 0 1-1.131-1.131V46.387" stroke="#0468FF" stroke-width="4.689" stroke-linecap="round" stroke-linejoin="round"/><path d="M73.3 56.902v-3.344h.473v2.929h1.864v-2.93h.473v3.345H73.3Zm2.881.76v-.884l.115.124h-.66v-.415h.99v1.175h-.445Zm1.85-2.661h1.72v.406h-1.72V55Zm.043 1.486h1.95v.415h-2.428v-3.344h2.36v.415h-1.882v2.514Zm5.433-2.93h.478v3.345h-.478v-3.344Zm-1.92 3.345h-.479v-3.344h.478v3.344Zm1.963-1.49h-2.012v-.416h2.012v.415Zm2.496 1.49V53.85l.12.124h-1.262v-.415h2.757v.415h-1.262l.115-.124v3.053h-.468Zm2.53 0v-3.344h1.304c.293 0 .543.046.75.138.208.093.367.226.478.401.112.176.168.384.168.627 0 .242-.056.45-.168.625-.111.172-.27.306-.478.402a1.834 1.834 0 0 1-.75.138H88.84l.215-.224v1.237h-.478Zm.478-1.19-.215-.238h1.027c.306 0 .537-.066.693-.196.16-.13.239-.316.239-.554 0-.24-.08-.424-.24-.555-.155-.13-.386-.196-.692-.196h-1.027l.215-.239v1.979Zm4.885 1.19v-3.344h.473v2.929h1.864v-2.93h.473v3.345h-2.81Zm2.881.76v-.884l.115.124h-.66v-.415h.99v1.175h-.445Zm1.415-.76v-3.344h.473v2.58l1.978-2.58h.44v3.344h-.468v-2.575l-1.983 2.575h-.44Zm5.902-.224c-.407 0-.756-.056-1.046-.167a1.428 1.428 0 0 1-.664-.497 1.332 1.332 0 0 1-.23-.789c0-.309.077-.572.23-.788.153-.217.374-.383.664-.497.29-.115.639-.172 1.046-.172h.12c.408 0 .755.057 1.041.172.29.114.512.28.665.497.153.216.229.48.229.788 0 .306-.076.569-.229.789-.15.216-.368.382-.655.496-.283.112-.628.168-1.032.168h-.139Zm.053-.373h.038c.325-.003.599-.044.822-.124a1.05 1.05 0 0 0 .506-.363.99.99 0 0 0 .177-.598.96.96 0 0 0-.177-.587 1.079 1.079 0 0 0-.511-.363 2.3 2.3 0 0 0-.807-.125h-.048a2.47 2.47 0 0 0-.836.125c-.226.08-.398.199-.516.358a.976.976 0 0 0-.177.597c0 .24.06.438.181.597.122.16.295.28.521.364.23.08.505.12.827.12Zm-.215.722v-3.594h.444v3.594h-.444Zm3.286-.125v-3.344h1.305c.293 0 .543.046.75.138.207.093.366.226.478.401.111.176.167.384.167.627 0 .242-.056.45-.167.625a1.107 1.107 0 0 1-.478.402 1.833 1.833 0 0 1-.75.138h-1.042l.215-.224v1.237h-.478Zm.478-1.19-.215-.238h1.027c.306 0 .537-.066.693-.196.159-.13.239-.316.239-.554 0-.24-.08-.424-.239-.555-.156-.13-.387-.196-.693-.196h-1.027l.215-.239v1.979Zm4.773 1.229c-.255 0-.492-.043-.712-.13a1.716 1.716 0 0 1-.564-.358 1.711 1.711 0 0 1-.373-.545 1.7 1.7 0 0 1-.133-.678 1.656 1.656 0 0 1 .506-1.218c.159-.157.347-.278.564-.364.217-.086.454-.129.712-.129.255 0 .489.043.702.13.217.082.405.202.564.358.163.153.287.333.373.54.089.207.134.434.134.683 0 .248-.045.476-.134.683-.086.207-.21.389-.373.545a1.716 1.716 0 0 1-.564.358 1.92 1.92 0 0 1-.702.125Zm0-.426c.185 0 .355-.032.511-.095a1.215 1.215 0 0 0 .683-.679c.067-.156.101-.326.101-.511s-.034-.355-.101-.511a1.17 1.17 0 0 0-.272-.406 1.18 1.18 0 0 0-.411-.273 1.338 1.338 0 0 0-.511-.095 1.39 1.39 0 0 0-.521.095 1.237 1.237 0 0 0-.411.273c-.118.114-.21.25-.277.406a1.335 1.335 0 0 0-.096.511c0 .185.032.355.096.511.067.156.159.293.277.411.118.115.255.204.411.268.159.063.333.095.521.095Zm2.879.387v-3.344h1.439c.363 0 .648.073.855.22.207.146.311.36.311.64 0 .274-.099.484-.297.63-.197.144-.457.215-.778.215l.086-.143c.372 0 .657.075.855.225.2.146.301.361.301.645 0 .286-.105.511-.316.673-.207.16-.516.24-.926.24h-1.53Zm.474-.377h1.046c.255 0 .446-.046.573-.139.131-.095.196-.24.196-.434 0-.195-.065-.337-.196-.426-.127-.089-.318-.134-.573-.134h-1.046v1.133Zm0-1.496h.931c.233 0 .41-.046.531-.138.124-.093.186-.228.186-.406 0-.182-.062-.319-.186-.411-.121-.093-.298-.139-.531-.139h-.931v1.094Zm4.898-.306c.395 0 .699.09.912.268.214.175.32.438.32.788 0 .37-.116.65-.349.841-.229.188-.552.282-.969.282h-1.381v-3.344h.473v1.166h.994Zm-.106 1.802c.278 0 .489-.062.636-.186.15-.125.224-.308.224-.55 0-.236-.073-.41-.219-.52-.147-.112-.36-.168-.641-.168h-.888v1.424h.888Zm1.869.377v-3.344h.473v3.344h-.473Zm1.491-3.344h.55l.874 1.223.875-1.223h.559l-1.133 1.605 1.223 1.74h-.563l-.961-1.334-.955 1.333h-.55l1.218-1.72-1.137-1.624Zm6.186 3.344V53.85l.119.124h-1.261v-.415h2.757v.415h-1.262l.115-.124v3.053h-.468Zm2.965-1.901h1.72v.406h-1.72V55Zm.043 1.486h1.949v.415h-2.427v-3.344h2.36v.415h-1.882v2.514Zm2.638-2.93h.55l.874 1.224.875-1.223h.559l-1.133 1.605 1.224 1.74h-.564l-.961-1.334-.955 1.333h-.55l1.219-1.72-1.138-1.624Zm6.172 0h.477v3.345h-.477v-3.344Zm-1.921 3.345h-.478v-3.344h.478v3.344Zm1.964-1.49h-2.012v-.416h2.012v.415Zm3.317 1.529c-.255 0-.492-.043-.712-.13a1.737 1.737 0 0 1-.564-.358 1.693 1.693 0 0 1-.506-1.223 1.7 1.7 0 0 1 .134-.678 1.697 1.697 0 0 1 .936-.903c.217-.087.454-.13.712-.13.255 0 .489.043.703.13.216.082.404.202.563.358.163.153.287.333.373.54.089.207.134.434.134.683 0 .248-.045.476-.134.683-.086.207-.21.389-.373.545a1.721 1.721 0 0 1-.563.358 1.929 1.929 0 0 1-.703.125Zm0-.426c.185 0 .355-.032.512-.095a1.2 1.2 0 0 0 .41-.268 1.24 1.24 0 0 0 .273-.41c.067-.157.1-.327.1-.512a1.282 1.282 0 0 0-.373-.917 1.166 1.166 0 0 0-.41-.273 1.347 1.347 0 0 0-.512-.095c-.188 0-.361.032-.521.095a1.237 1.237 0 0 0-.411.273c-.117.114-.21.25-.277.406a1.354 1.354 0 0 0-.095.511c0 .185.032.355.095.511.067.156.16.293.277.411.118.115.255.204.411.268.16.063.333.095.521.095Zm2.629.426c-.048 0-.096-.004-.143-.01a1.83 1.83 0 0 1-.158-.029l.033-.425c.051.013.102.02.153.02.14 0 .252-.056.335-.168.082-.111.143-.28.181-.507.042-.226.069-.51.081-.855l.053-1.41h2.356v3.345h-.469V53.85l.115.124h-1.696l.105-.129-.038 1.109c-.01.331-.032.621-.067.87a2.512 2.512 0 0 1-.158.62.877.877 0 0 1-.272.373.66.66 0 0 1-.411.125Zm5.772 0c-.255 0-.492-.043-.712-.13a1.737 1.737 0 0 1-.564-.358A1.693 1.693 0 0 1 152 55.23c0-.245.044-.471.134-.678a1.697 1.697 0 0 1 .936-.903c.217-.087.454-.13.712-.13.255 0 .489.043.702.13.217.082.405.202.564.358.163.153.287.333.373.54.089.207.134.434.134.683 0 .248-.045.476-.134.683-.086.207-.21.389-.373.545a1.716 1.716 0 0 1-.564.358 1.92 1.92 0 0 1-.702.125Zm0-.426c.185 0 .355-.032.511-.095.16-.064.297-.153.411-.268a1.24 1.24 0 0 0 .273-.41c.067-.157.1-.327.1-.512a1.282 1.282 0 0 0-.373-.917 1.161 1.161 0 0 0-.411-.273 1.338 1.338 0 0 0-.511-.095c-.188 0-.361.032-.521.095a1.237 1.237 0 0 0-.411.273c-.118.114-.21.25-.277.406a1.354 1.354 0 0 0-.095.511c0 .185.032.355.095.511.067.156.159.293.277.411.118.115.255.204.411.268.16.063.333.095.521.095Zm2.88.387v-3.344h2.193l-.005.415h-1.835l.115-.12.005 3.05h-.473Zm3.097 0v-3.344h.473v2.58l1.978-2.58h.439v3.344h-.468v-2.575l-1.983 2.575h-.439Zm4.268 0v-3.344h.473v2.58l1.978-2.58h.439v3.344h-.468v-2.575l-1.983 2.575h-.439Zm1.438-3.578c-.261 0-.464-.058-.607-.172a.602.602 0 0 1-.215-.483h.339a.371.371 0 0 0 .134.291c.086.067.202.1.349.1a.546.546 0 0 0 .344-.1.366.366 0 0 0 .139-.291h.334a.593.593 0 0 1-.22.483c-.14.114-.339.172-.597.172Z" fill="#7F7F7F"/><path d="M81.14 46.729c-1.117 0-2.148-.18-3.092-.54a7.563 7.563 0 0 1-2.475-1.516 7.198 7.198 0 0 1-1.616-2.315c-.386-.878-.58-1.842-.58-2.893 0-1.051.194-2.016.58-2.894a6.976 6.976 0 0 1 1.616-2.295 7.393 7.393 0 0 1 2.475-1.537c.944-.359 1.975-.538 3.093-.538 1.13 0 2.162.18 3.093.538.945.36 1.763.872 2.455 1.537a6.977 6.977 0 0 1 1.616 2.295c.4.878.599 1.843.599 2.894 0 1.05-.2 2.022-.599 2.913a6.977 6.977 0 0 1-1.617 2.295 7.337 7.337 0 0 1-2.454 1.517c-.931.359-1.962.539-3.093.539Zm0-3.273a3.84 3.84 0 0 0 1.478-.28 3.379 3.379 0 0 0 1.197-.798 3.71 3.71 0 0 0 .798-1.277c.2-.492.3-1.038.3-1.636 0-.612-.1-1.158-.3-1.637a3.507 3.507 0 0 0-.798-1.257 3.259 3.259 0 0 0-1.197-.818 3.84 3.84 0 0 0-1.477-.28c-.532 0-1.031.093-1.497.28a3.493 3.493 0 0 0-1.197.818 3.91 3.91 0 0 0-.799 1.257c-.186.48-.279 1.025-.279 1.637 0 .598.093 1.144.28 1.636.199.492.465.918.798 1.277.346.346.745.612 1.197.798.466.187.965.28 1.497.28Zm9.876 2.993V32.48h3.892v10.836h5.368V32.48h3.891v13.97h-13.15Zm11.455 2.854V45.57l.818.878h-3.013v-3.133h5.807v5.987h-3.612Zm9.113-11.415h6.485v2.954h-6.485v-2.954Zm.279 5.508h7.304v3.053h-11.215V32.48h10.956v3.053h-7.045v7.863Zm18.895-10.916h3.951v13.97h-3.951V32.48Zm-5.389 13.97h-3.951V32.48h3.951v13.97ZM131.037 41h-5.947v-3.273h5.947v3.273Zm15.494 5.448-3.931-6.645 3.173-1.876 5.208 8.521h-4.45Zm-8.901 0V32.48h3.932v13.97h-3.932Zm2.794-5.348v-3.193h5.069v3.193h-5.069Zm5.728-1.217-3.652-.4 4.29-7.004h4.151l-4.789 7.404Zm4.368 6.565 6.167-13.969h3.891l6.187 13.97h-4.111l-4.83-12.034h1.557l-4.83 12.033h-4.031Zm3.373-2.714 1.018-2.913h6.825l1.017 2.913h-8.86Z" fill="#152242"/></svg>