<svg width="147" height="47" fill="none" xmlns="http://www.w3.org/2000/svg"><path d="m5.656 18.786 16.97-10.37 16.97 10.37M35.825 27.261v12.067c0 .625-.507 1.132-1.131 1.132H10.559a1.131 1.131 0 0 1-1.131-1.132V27.261" stroke="#0468FF" stroke-width="4.689" stroke-linecap="round" stroke-linejoin="round"/><path d="M52.8 37.775v-3.344h.473v2.929h1.864v-2.93h.473v3.345H52.8Zm2.881.76v-.884l.115.124h-.66v-.415h.99v1.175h-.445Zm1.85-2.661h1.72v.406h-1.72v-.406Zm.043 1.486h1.95v.415h-2.428v-3.344h2.36v.415h-1.882v2.514Zm5.433-2.93h.478v3.345h-.478v-3.344Zm-1.92 3.345h-.479v-3.344h.478v3.344Zm1.963-1.49h-2.012v-.416h2.012v.416Zm2.496 1.49v-3.053l.12.124h-1.262v-.415h2.757v.415h-1.262l.115-.124v3.053h-.468Zm2.53 0v-3.344h1.304c.294 0 .544.046.75.138.208.092.367.226.478.401.112.176.168.384.168.626 0 .243-.056.451-.168.626-.111.172-.27.306-.477.402a1.835 1.835 0 0 1-.75.138h-1.042l.215-.224v1.237h-.478Zm.478-1.19-.215-.238h1.027c.306 0 .537-.066.693-.196.16-.13.239-.316.239-.555 0-.238-.08-.423-.239-.554-.156-.13-.387-.196-.693-.196H68.34l.215-.239v1.979Zm4.885 1.19v-3.344h.473v2.929h1.864v-2.93h.473v3.345h-2.81Zm2.881.76v-.884l.115.124h-.66v-.415h.99v1.175h-.445Zm1.415-.76v-3.344h.473v2.58l1.978-2.58h.44v3.344h-.468V35.2l-1.983 2.575h-.44Zm5.903-.224c-.408 0-.757-.056-1.047-.168a1.43 1.43 0 0 1-.664-.496 1.333 1.333 0 0 1-.23-.789c0-.309.077-.572.23-.788a1.43 1.43 0 0 1 .664-.497c.29-.115.639-.172 1.047-.172h.119c.408 0 .755.057 1.042.172.29.114.51.28.664.497.153.216.23.48.23.788 0 .306-.077.569-.23.789-.15.216-.368.382-.655.496-.283.112-.627.168-1.032.168h-.138Zm.052-.373h.038c.325-.003.6-.045.822-.124.223-.083.392-.204.507-.363a.99.99 0 0 0 .176-.598.96.96 0 0 0-.176-.587 1.085 1.085 0 0 0-.512-.364 2.302 2.302 0 0 0-.807-.124h-.048c-.328 0-.607.042-.836.124-.226.08-.398.2-.516.359a.976.976 0 0 0-.177.597c0 .24.06.438.182.597.12.16.294.28.52.364.23.08.505.119.827.119Zm-.215.722v-3.594h.444V37.9h-.444Zm3.286-.125v-3.344h1.305c.293 0 .543.046.75.138.207.092.366.226.478.401.111.176.167.384.167.626 0 .243-.056.451-.167.626-.112.172-.27.306-.478.402a1.835 1.835 0 0 1-.75.138h-1.042l.215-.224v1.237h-.478Zm.478-1.19-.215-.238h1.028c.305 0 .536-.066.692-.196.16-.13.24-.316.24-.555 0-.238-.08-.423-.24-.554-.156-.13-.387-.196-.692-.196h-1.028l.215-.239v1.979Zm4.773 1.228c-.255 0-.492-.043-.712-.129a1.72 1.72 0 0 1-.564-.358 1.69 1.69 0 0 1-.506-1.223 1.639 1.639 0 0 1 .507-1.218c.159-.157.346-.278.563-.364.217-.086.454-.129.712-.129.255 0 .489.043.702.13.217.082.405.202.564.358.163.153.287.333.373.54.09.207.134.434.134.683 0 .248-.045.476-.134.683-.086.207-.21.389-.373.545-.16.153-.347.272-.564.358a1.926 1.926 0 0 1-.702.124Zm0-.425c.185 0 .355-.032.511-.095a1.208 1.208 0 0 0 .684-.679c.066-.156.1-.326.1-.511a1.284 1.284 0 0 0-.373-.918 1.175 1.175 0 0 0-.41-.272 1.339 1.339 0 0 0-.512-.095c-.188 0-.362.031-.52.095a1.236 1.236 0 0 0-.412.273c-.118.114-.21.25-.277.406a1.34 1.34 0 0 0-.096.51c0 .186.032.356.096.512.067.156.16.293.277.411.118.115.255.204.411.268.16.063.333.095.521.095Zm2.88.387v-3.344h1.438c.363 0 .648.073.855.22.207.146.31.36.31.64 0 .274-.098.484-.296.63-.197.144-.457.215-.778.215l.086-.143c.372 0 .657.075.855.225.2.146.301.361.301.645a.804.804 0 0 1-.315.673c-.207.16-.516.24-.927.24h-1.53Zm.473-.377h1.046c.255 0 .446-.046.573-.139.131-.095.196-.24.196-.435 0-.194-.065-.336-.196-.425-.127-.089-.318-.134-.573-.134h-1.046v1.133Zm0-1.496h.931c.233 0 .41-.046.53-.138.125-.093.187-.228.187-.407 0-.181-.062-.318-.186-.41-.121-.093-.298-.139-.53-.139h-.932v1.094Zm4.898-.306c.395 0 .699.09.912.268.214.175.32.438.32.788 0 .37-.116.65-.348.841-.23.188-.553.282-.97.282h-1.381v-3.344h.473v1.165h.994Zm-.105 1.802c.277 0 .488-.062.635-.187.15-.124.225-.307.225-.549 0-.236-.074-.41-.22-.52-.147-.112-.36-.168-.64-.168h-.89v1.424h.89Zm1.868.377v-3.344h.473v3.344h-.473Zm1.491-3.344h.55l.874 1.223.875-1.223h.559l-1.133 1.605 1.224 1.74h-.564l-.961-1.334-.955 1.333h-.55l1.219-1.72-1.138-1.624Zm6.186 3.344v-3.053l.119.124h-1.261v-.415h2.757v.415h-1.262l.115-.124v3.053h-.468Zm2.965-1.901h1.72v.406h-1.72v-.406Zm.043 1.486h1.949v.415h-2.427v-3.344h2.361v.415h-1.883v2.514Zm2.639-2.93h.549l.874 1.224.875-1.223h.559l-1.132 1.605 1.223 1.74h-.564l-.961-1.334-.955 1.333h-.55l1.219-1.72-1.137-1.624Zm6.171 0h.478v3.345h-.478v-3.344Zm-1.921 3.345h-.478v-3.344h.478v3.344Zm1.964-1.49h-2.012v-.416h2.012v.416Zm3.317 1.529a1.94 1.94 0 0 1-.712-.13 1.72 1.72 0 0 1-.563-.358 1.678 1.678 0 0 1-.507-1.223 1.7 1.7 0 0 1 .134-.679 1.684 1.684 0 0 1 .936-.903c.217-.086.454-.129.712-.129.255 0 .489.043.703.13.216.082.404.202.564.358.162.153.286.333.372.54.089.207.134.434.134.683 0 .248-.045.476-.134.683-.086.207-.21.389-.372.545-.16.153-.348.272-.564.358a1.931 1.931 0 0 1-.703.124Zm0-.426c.185 0 .356-.032.512-.095a1.213 1.213 0 0 0 .683-.679c.067-.156.1-.326.1-.511a1.282 1.282 0 0 0-.372-.918 1.18 1.18 0 0 0-.411-.272 1.341 1.341 0 0 0-.512-.095c-.188 0-.361.031-.52.095a1.218 1.218 0 0 0-.411.273c-.118.114-.211.25-.278.406a1.353 1.353 0 0 0-.095.51c0 .186.032.356.095.512a1.254 1.254 0 0 0 .689.679c.159.063.332.095.52.095Zm2.629.425c-.048 0-.096-.003-.143-.009a1.87 1.87 0 0 1-.158-.029l.033-.425c.051.013.102.02.153.02.14 0 .252-.057.335-.168.083-.112.143-.28.181-.507.042-.226.069-.51.082-.855l.052-1.41h2.356v3.345h-.468v-3.053l.114.124h-1.696l.105-.129-.038 1.109a8.07 8.07 0 0 1-.067.87 2.513 2.513 0 0 1-.158.62.877.877 0 0 1-.272.373.656.656 0 0 1-.411.124Zm5.772 0c-.255 0-.492-.043-.712-.129a1.735 1.735 0 0 1-.564-.358 1.69 1.69 0 0 1-.506-1.223 1.7 1.7 0 0 1 .134-.679 1.699 1.699 0 0 1 .936-.903c.217-.086.454-.129.712-.129.255 0 .489.043.703.13.216.082.404.202.563.358.163.153.287.333.373.54.089.207.134.434.134.683 0 .248-.045.476-.134.683a1.59 1.59 0 0 1-.373.545 1.722 1.722 0 0 1-.563.358 1.931 1.931 0 0 1-.703.124Zm0-.425c.185 0 .355-.032.511-.095.16-.064.297-.153.411-.268a1.282 1.282 0 0 0 .373-.922 1.282 1.282 0 0 0-.373-.918 1.162 1.162 0 0 0-.411-.272 1.336 1.336 0 0 0-.511-.095c-.188 0-.361.031-.521.095a1.238 1.238 0 0 0-.411.273c-.117.114-.21.25-.277.406a1.353 1.353 0 0 0-.095.51c0 .186.032.356.095.512.067.156.16.293.277.411.118.115.255.204.411.268.16.063.333.095.521.095Zm2.88.387v-3.344h2.193l-.005.415h-1.835l.115-.12.005 3.05h-.473Zm3.097 0v-3.344h.473v2.58l1.978-2.58h.44v3.344h-.469V35.2l-1.983 2.575h-.439Zm4.268 0v-3.344H144v2.58l1.978-2.58h.44v3.344h-.469V35.2l-1.983 2.575h-.439Zm1.438-3.579c-.261 0-.463-.057-.607-.172a.601.601 0 0 1-.215-.482h.339a.371.371 0 0 0 .134.291c.086.067.203.1.349.1a.546.546 0 0 0 .344-.1.366.366 0 0 0 .139-.291h.334a.593.593 0 0 1-.22.482c-.14.115-.339.172-.597.172Z" fill="#7F7F7F"/><path d="M60.64 27.602c-1.117 0-2.148-.18-3.092-.54a7.564 7.564 0 0 1-2.475-1.516 7.199 7.199 0 0 1-1.616-2.315c-.386-.878-.579-1.842-.579-2.894 0-1.05.193-2.015.579-2.893a6.975 6.975 0 0 1 1.616-2.295 7.394 7.394 0 0 1 2.475-1.537c.944-.359 1.975-.539 3.093-.539 1.13 0 2.162.18 3.093.54.945.359 1.763.87 2.455 1.536a6.974 6.974 0 0 1 1.616 2.295c.4.878.599 1.843.599 2.893 0 1.052-.2 2.023-.599 2.914a6.974 6.974 0 0 1-1.616 2.295 7.337 7.337 0 0 1-2.455 1.517c-.931.359-1.962.539-3.093.539Zm0-3.273c.533 0 1.025-.093 1.478-.28a3.38 3.38 0 0 0 1.197-.798c.346-.36.612-.785.798-1.277.2-.492.3-1.038.3-1.637 0-.611-.1-1.157-.3-1.636a3.505 3.505 0 0 0-.798-1.257 3.259 3.259 0 0 0-1.197-.818 3.842 3.842 0 0 0-1.477-.28c-.532 0-1.031.093-1.497.28a3.494 3.494 0 0 0-1.197.818 3.908 3.908 0 0 0-.798 1.257c-.187.48-.28 1.024-.28 1.636 0 .6.093 1.145.28 1.637.2.492.465.918.798 1.277.346.346.745.612 1.197.798.466.187.965.28 1.497.28Zm9.876 2.993v-13.97h3.892V24.19h5.368V13.353h3.892v13.97H70.516Zm11.455 2.854v-3.732l.818.878h-3.013V24.19h5.807v5.987h-3.612Zm9.113-11.415h6.486v2.954h-6.486V18.76Zm.28 5.508h7.303v3.053H87.452v-13.97h10.956v3.054h-7.045v7.863Zm18.894-10.916h3.951v13.97h-3.951v-13.97Zm-5.388 13.97h-3.952v-13.97h3.952v13.97Zm5.667-5.449h-5.947v-3.273h5.947v3.273Zm15.494 5.448-3.931-6.645 3.173-1.876 5.208 8.521h-4.45Zm-8.9 0v-13.97h3.931v13.97h-3.931Zm2.793-5.348V18.78h5.069v3.193h-5.069Zm5.728-1.217-3.652-.4 4.29-7.004h4.151l-4.789 7.404Zm4.368 6.565 6.167-13.97h3.891l6.187 13.97h-4.111l-4.83-12.033h1.557l-4.829 12.033h-4.032Zm3.373-2.714 1.018-2.913h6.825l1.018 2.913h-8.861Z" fill="#152242"/></svg>